<?xml version="1.0" encoding="UTF-8" standalone="no"?>
<!-- Created with Inkscape (http://www.inkscape.org/) -->

<svg
   width="121.50673mm"
   height="114.15829mm"
   viewBox="0 0 12.150673 11.415829"
   version="1.1"
   id="svg1"
   inkscape:version="1.3.2 (091e20ef0f, 2023-11-25, custom)"
   sodipodi:docname="drawing.svg"
   inkscape:export-filename="drawing.png"
   inkscape:export-xdpi="88.999237"
   inkscape:export-ydpi="88.999237"
   xmlns:inkscape="http://www.inkscape.org/namespaces/inkscape"
   xmlns:sodipodi="http://sodipodi.sourceforge.net/DTD/sodipodi-0.dtd"
   xmlns="http://www.w3.org/2000/svg"
   xmlns:svg="http://www.w3.org/2000/svg">
  <sodipodi:namedview
     id="namedview1"
     pagecolor="#ffffff"
     bordercolor="#000000"
     borderopacity="0.25"
     inkscape:showpageshadow="2"
     inkscape:pageopacity="0.0"
     inkscape:pagecheckerboard="0"
     inkscape:deskcolor="#d1d1d1"
     inkscape:document-units="mm"
     inkscape:zoom="1.0129245"
     inkscape:cx="121.43057"
     inkscape:cy="186.58844"
     inkscape:window-width="1920"
     inkscape:window-height="1008"
     inkscape:window-x="0"
     inkscape:window-y="0"
     inkscape:window-maximized="1"
     inkscape:current-layer="layer1" />
  <defs
     id="defs1">
    <marker
       style="overflow:visible"
       id="ArrowWide"
       refX="0"
       refY="0"
       orient="auto-start-reverse"
       inkscape:stockid="Wide arrow"
       markerWidth="1"
       markerHeight="1"
       viewBox="0 0 1 1"
       inkscape:isstock="true"
       inkscape:collect="always"
       preserveAspectRatio="xMidYMid">
      <path
         style="fill:none;stroke:context-stroke;stroke-width:1;stroke-linecap:butt"
         d="M 3,-3 0,0 3,3"
         transform="rotate(180,0.125,0)"
         sodipodi:nodetypes="ccc"
         id="path2" />
    </marker>
    <clipPath
       clipPathUnits="userSpaceOnUse"
       id="clipPath739">
      <path
         d="m 93.5,378.1325 h 558 v 123.2 h -558 z"
         id="path739" />
    </clipPath>
    <clipPath
       clipPathUnits="userSpaceOnUse"
       id="clipPath2719">
      <path
         d="m 93.5,378.1325 h 558 v 123.2 h -558 z"
         id="path2719" />
    </clipPath>
    <clipPath
       clipPathUnits="userSpaceOnUse"
       id="clipPath4403">
      <path
         d="m 93.5,378.1325 h 558 v 123.2 h -558 z"
         id="path4403" />
    </clipPath>
    <clipPath
       clipPathUnits="userSpaceOnUse"
       id="clipPath4405">
      <path
         d="m 93.5,378.1325 h 558 v 123.2 h -558 z"
         id="path4405" />
    </clipPath>
    <clipPath
       clipPathUnits="userSpaceOnUse"
       id="clipPath4487">
      <path
         d="m 93.5,378.1325 h 558 v 123.2 h -558 z"
         id="path4487" />
    </clipPath>
    <clipPath
       clipPathUnits="userSpaceOnUse"
       id="clipPath4491">
      <path
         d="m 93.5,378.1325 h 558 v 123.2 h -558 z"
         id="path4491" />
    </clipPath>
    <clipPath
       clipPathUnits="userSpaceOnUse"
       id="clipPath4593">
      <path
         d="m 93.5,378.1325 h 558 v 123.2 h -558 z"
         id="path4593" />
    </clipPath>
    <clipPath
       clipPathUnits="userSpaceOnUse"
       id="clipPath4597">
      <path
         d="m 93.5,378.1325 h 558 v 123.2 h -558 z"
         id="path4597" />
    </clipPath>
    <clipPath
       clipPathUnits="userSpaceOnUse"
       id="clipPath4601">
      <path
         d="m 93.5,378.1325 h 558 v 123.2 h -558 z"
         id="path4601" />
    </clipPath>
    <clipPath
       clipPathUnits="userSpaceOnUse"
       id="clipPath4603">
      <path
         d="m 93.5,378.1325 h 558 v 123.2 h -558 z"
         id="path4603" />
    </clipPath>
    <clipPath
       clipPathUnits="userSpaceOnUse"
       id="clipPath2721">
      <path
         d="m 93.5,378.1325 h 558 v 123.2 h -558 z"
         id="path2721" />
    </clipPath>
    <clipPath
       clipPathUnits="userSpaceOnUse"
       id="clipPath2685">
      <path
         d="m 93.5,378.1325 h 558 v 123.2 h -558 z"
         id="path2685" />
    </clipPath>
    <clipPath
       clipPathUnits="userSpaceOnUse"
       id="clipPath2683">
      <path
         d="m 93.5,378.1325 h 558 v 123.2 h -558 z"
         id="path2683" />
    </clipPath>
    <clipPath
       clipPathUnits="userSpaceOnUse"
       id="clipPath4399">
      <path
         d="m 93.5,378.1325 h 558 v 123.2 h -558 z"
         id="path4399" />
    </clipPath>
    <clipPath
       clipPathUnits="userSpaceOnUse"
       id="clipPath4479">
      <path
         d="m 93.5,378.1325 h 558 v 123.2 h -558 z"
         id="path4479" />
    </clipPath>
    <clipPath
       clipPathUnits="userSpaceOnUse"
       id="clipPath4595">
      <path
         d="m 93.5,378.1325 h 558 v 123.2 h -558 z"
         id="path4595" />
    </clipPath>
    <clipPath
       clipPathUnits="userSpaceOnUse"
       id="clipPath4741">
      <path
         d="m 93.5,378.1325 h 558 v 123.2 h -558 z"
         id="path4741" />
    </clipPath>
    <clipPath
       clipPathUnits="userSpaceOnUse"
       id="clipPath4749">
      <path
         d="m 93.5,378.1325 h 558 v 123.2 h -558 z"
         id="path4749" />
    </clipPath>
    <clipPath
       clipPathUnits="userSpaceOnUse"
       id="clipPath4611">
      <path
         d="m 93.5,378.1325 h 558 v 123.2 h -558 z"
         id="path4611" />
    </clipPath>
    <clipPath
       clipPathUnits="userSpaceOnUse"
       id="clipPath4489">
      <path
         d="m 93.5,378.1325 h 558 v 123.2 h -558 z"
         id="path4489" />
    </clipPath>
    <clipPath
       clipPathUnits="userSpaceOnUse"
       id="clipPath737">
      <path
         d="m 93.5,378.1325 h 558 v 123.2 h -558 z"
         id="path737" />
    </clipPath>
    <clipPath
       clipPathUnits="userSpaceOnUse"
       id="clipPath701">
      <path
         d="m 93.5,378.1325 h 558 v 123.2 h -558 z"
         id="path701" />
    </clipPath>
    <clipPath
       clipPathUnits="userSpaceOnUse"
       id="clipPath703">
      <path
         d="m 93.5,378.1325 h 558 v 123.2 h -558 z"
         id="path703" />
    </clipPath>
    <clipPath
       clipPathUnits="userSpaceOnUse"
       id="clipPath705">
      <path
         d="m 93.5,378.1325 h 558 v 123.2 h -558 z"
         id="path705" />
    </clipPath>
    <clipPath
       clipPathUnits="userSpaceOnUse"
       id="clipPath741">
      <path
         d="m 93.5,378.1325 h 558 v 123.2 h -558 z"
         id="path741" />
    </clipPath>
    <clipPath
       clipPathUnits="userSpaceOnUse"
       id="clipPath777">
      <path
         d="m 93.5,378.1325 h 558 v 123.2 h -558 z"
         id="path777" />
    </clipPath>
    <clipPath
       clipPathUnits="userSpaceOnUse"
       id="clipPath775">
      <path
         d="m 93.5,378.1325 h 558 v 123.2 h -558 z"
         id="path775" />
    </clipPath>
    <clipPath
       clipPathUnits="userSpaceOnUse"
       id="clipPath773">
      <path
         d="m 93.5,378.1325 h 558 v 123.2 h -558 z"
         id="path773" />
    </clipPath>
    <clipPath
       clipPathUnits="userSpaceOnUse"
       id="clipPath4485">
      <path
         d="m 93.5,378.1325 h 558 v 123.2 h -558 z"
         id="path4485" />
    </clipPath>
    <marker
       style="overflow:visible"
       id="ArrowWide-2"
       refX="0"
       refY="0"
       orient="auto-start-reverse"
       inkscape:stockid="Wide arrow"
       markerWidth="1"
       markerHeight="1"
       viewBox="0 0 1 1"
       inkscape:isstock="true"
       inkscape:collect="always"
       preserveAspectRatio="xMidYMid">
      <path
         style="fill:none;stroke:context-stroke;stroke-width:1;stroke-linecap:butt"
         d="M 3,-3 0,0 3,3"
         transform="rotate(180,0.125,0)"
         sodipodi:nodetypes="ccc"
         id="path2-0" />
    </marker>
    <clipPath
       clipPathUnits="userSpaceOnUse"
       id="clipPath4485-6">
      <path
         d="m 93.5,378.1325 h 558 v 123.2 h -558 z"
         id="path4485-5" />
    </clipPath>
    <clipPath
       clipPathUnits="userSpaceOnUse"
       id="clipPath4485-4">
      <path
         d="m 93.5,378.1325 h 558 v 123.2 h -558 z"
         id="path4485-52" />
    </clipPath>
    <clipPath
       clipPathUnits="userSpaceOnUse"
       id="clipPath4485-43">
      <path
         d="m 93.5,378.1325 h 558 v 123.2 h -558 z"
         id="path4485-0" />
    </clipPath>
  </defs>
  <g
     inkscape:label="Layer 1"
     inkscape:groupmode="layer"
     id="layer1"
     transform="translate(-110.58696,-100.43936)">
    <rect
       style="fill:#e9e9e9;fill-opacity:1;stroke:#3f4e4e;stroke-width:0.0778966;stroke-dasharray:none;stroke-opacity:1"
       id="rect2"
       width="12.072777"
       height="11.337933"
       x="110.62591"
       y="100.47831" />
    <path
       id="path700"
       d="m 303.28749,425.02394 c 0.59715,0 1.16992,0.16346 1.59216,0.4544 0.42225,0.29093 0.6595,0.68557 0.6595,1.09701 0,0.41143 -0.23725,0.80608 -0.6595,1.09701 -0.42224,0.29093 -0.99501,0.45439 -1.59216,0.45439 -0.59715,0 -1.16992,-0.16346 -1.59217,-0.45439 -0.42224,-0.29093 -0.65949,-0.68558 -0.65949,-1.09701 0,-0.41144 0.23725,-0.80608 0.65949,-1.09701 0.42225,-0.29094 0.99502,-0.4544 1.59217,-0.4544 z"
       style="fill:#0000ff;fill-opacity:0.7;fill-rule:nonzero;stroke:#0000ff;stroke-width:1;stroke-linecap:butt;stroke-linejoin:miter;stroke-miterlimit:10;stroke-dasharray:none;stroke-opacity:0.7"
       transform="matrix(0.35277776,0,0,-0.35277776,7.4612636,257.94053)"
       clip-path="url(#clipPath701)" />
    <path
       id="path702"
       d="m 303.19761,431.39795 c 0.59715,0 1.16992,0.16346 1.59217,0.4544 0.42224,0.29093 0.65949,0.68557 0.65949,1.09701 0,0.41143 -0.23725,0.80608 -0.65949,1.09701 -0.42225,0.29093 -0.99502,0.45439 -1.59217,0.45439 -0.59714,0 -1.16992,-0.16346 -1.59216,-0.45439 -0.42225,-0.29093 -0.6595,-0.68558 -0.6595,-1.09701 0,-0.41144 0.23725,-0.80608 0.6595,-1.09701 0.42224,-0.29094 0.99502,-0.4544 1.59216,-0.4544 z"
       style="fill:#0000ff;fill-opacity:0.7;fill-rule:nonzero;stroke:#0000ff;stroke-width:1;stroke-linecap:butt;stroke-linejoin:miter;stroke-miterlimit:10;stroke-dasharray:none;stroke-opacity:0.7"
       transform="matrix(0.35277776,0,0,-0.35277776,7.4612636,257.94053)"
       clip-path="url(#clipPath703)" />
    <path
       id="path704"
       d="m 302.80499,438.78167 c 0.59715,0 1.16992,0.16346 1.59216,0.45439 0.42225,0.29093 0.6595,0.68558 0.6595,1.09701 0,0.41144 -0.23725,0.80608 -0.6595,1.09701 -0.42224,0.29093 -0.99501,0.4544 -1.59216,0.4544 -0.59715,0 -1.16992,-0.16347 -1.59216,-0.4544 -0.42225,-0.29093 -0.6595,-0.68557 -0.6595,-1.09701 0,-0.41143 0.23725,-0.80608 0.6595,-1.09701 0.42224,-0.29093 0.99501,-0.45439 1.59216,-0.45439 z"
       style="fill:#0000ff;fill-opacity:0.7;fill-rule:nonzero;stroke:#0000ff;stroke-width:1;stroke-linecap:butt;stroke-linejoin:miter;stroke-miterlimit:10;stroke-dasharray:none;stroke-opacity:0.7"
       transform="matrix(0.35277776,0,0,-0.35277776,7.4612636,257.94053)"
       clip-path="url(#clipPath705)" />
    <path
       id="path736"
       d="m 313.42942,424.97915 c 0.59714,0 1.16991,0.16346 1.59216,0.45439 0.42225,0.29093 0.6595,0.68558 0.6595,1.09701 0,0.41144 -0.23725,0.80608 -0.6595,1.09701 -0.42225,0.29094 -0.99502,0.4544 -1.59216,0.4544 -0.59715,0 -1.16992,-0.16346 -1.59217,-0.4544 -0.42224,-0.29093 -0.65949,-0.68557 -0.65949,-1.09701 0,-0.41143 0.23725,-0.80608 0.65949,-1.09701 0.42225,-0.29093 0.99502,-0.45439 1.59217,-0.45439 z"
       style="fill:#0000ff;fill-opacity:0.7;fill-rule:nonzero;stroke:#0000ff;stroke-width:1;stroke-linecap:butt;stroke-linejoin:miter;stroke-miterlimit:10;stroke-dasharray:none;stroke-opacity:0.7"
       transform="matrix(0.35277776,0,0,-0.35277776,7.4612636,257.94053)"
       clip-path="url(#clipPath737)" />
    <path
       id="path738"
       d="m 313.02733,432.14714 c 0.59715,0 1.16992,0.16347 1.59217,0.4544 0.42225,0.29093 0.65949,0.68557 0.65949,1.09701 0,0.41144 -0.23724,0.80608 -0.65949,1.09701 -0.42225,0.29093 -0.99502,0.4544 -1.59217,0.4544 -0.59714,0 -1.16991,-0.16347 -1.59216,-0.4544 -0.42225,-0.29093 -0.65949,-0.68557 -0.65949,-1.09701 0,-0.41144 0.23724,-0.80608 0.65949,-1.09701 0.42225,-0.29093 0.99502,-0.4544 1.59216,-0.4544 z"
       style="fill:#0000ff;fill-opacity:0.7;fill-rule:nonzero;stroke:#0000ff;stroke-width:1;stroke-linecap:butt;stroke-linejoin:miter;stroke-miterlimit:10;stroke-dasharray:none;stroke-opacity:0.7"
       transform="matrix(0.35277776,0,0,-0.35277776,7.4612636,257.94053)"
       clip-path="url(#clipPath739)" />
    <path
       id="path740"
       d="m 312.70094,439.23622 c 0.59715,0 1.16992,0.16347 1.59216,0.4544 0.42225,0.29093 0.6595,0.68557 0.6595,1.09701 0,0.41144 -0.23725,0.80608 -0.6595,1.09701 -0.42224,0.29093 -0.99501,0.45439 -1.59216,0.45439 -0.59715,0 -1.16992,-0.16346 -1.59216,-0.45439 -0.42225,-0.29093 -0.6595,-0.68557 -0.6595,-1.09701 0,-0.41144 0.23725,-0.80608 0.6595,-1.09701 0.42224,-0.29093 0.99501,-0.4544 1.59216,-0.4544 z"
       style="fill:#0000ff;fill-opacity:0.7;fill-rule:nonzero;stroke:#0000ff;stroke-width:1;stroke-linecap:butt;stroke-linejoin:miter;stroke-miterlimit:10;stroke-dasharray:none;stroke-opacity:0.7"
       transform="matrix(0.35277776,0,0,-0.35277776,7.4612636,257.94053)"
       clip-path="url(#clipPath741)" />
    <path
       id="path772"
       d="m 323.60446,425.15681 c 0.59714,0 1.16991,0.16347 1.59216,0.4544 0.42225,0.29093 0.6595,0.68557 0.6595,1.09701 0,0.41144 -0.23725,0.80608 -0.6595,1.09701 -0.42225,0.29093 -0.99502,0.4544 -1.59216,0.4544 -0.59715,0 -1.16992,-0.16347 -1.59217,-0.4544 -0.42224,-0.29093 -0.65949,-0.68557 -0.65949,-1.09701 0,-0.41144 0.23725,-0.80608 0.65949,-1.09701 0.42225,-0.29093 0.99502,-0.4544 1.59217,-0.4544 z"
       style="fill:#0000ff;fill-opacity:0.7;fill-rule:nonzero;stroke:#0000ff;stroke-width:1;stroke-linecap:butt;stroke-linejoin:miter;stroke-miterlimit:10;stroke-dasharray:none;stroke-opacity:0.7"
       transform="matrix(0.35277776,0,0,-0.35277776,7.4612636,257.94053)"
       clip-path="url(#clipPath773)" />
    <path
       id="path774"
       d="m 323.20711,431.80038 c 0.59714,0 1.16991,0.16346 1.59216,0.4544 0.42225,0.29093 0.6595,0.68557 0.6595,1.09701 0,0.41143 -0.23725,0.80608 -0.6595,1.09701 -0.42225,0.29093 -0.99502,0.45439 -1.59216,0.45439 -0.59715,0 -1.16992,-0.16346 -1.59217,-0.45439 -0.42224,-0.29093 -0.65949,-0.68558 -0.65949,-1.09701 0,-0.41144 0.23725,-0.80608 0.65949,-1.09701 0.42225,-0.29094 0.99502,-0.4544 1.59217,-0.4544 z"
       style="fill:#0000ff;fill-opacity:0.7;fill-rule:nonzero;stroke:#0000ff;stroke-width:1;stroke-linecap:butt;stroke-linejoin:miter;stroke-miterlimit:10;stroke-dasharray:none;stroke-opacity:0.7"
       transform="matrix(0.35277776,0,0,-0.35277776,7.4612636,257.94053)"
       clip-path="url(#clipPath775)" />
    <path
       id="path776"
       d="m 323.36321,437.79026 c 0.59715,0 1.16992,0.16347 1.59216,0.4544 0.42225,0.29093 0.6595,0.68557 0.6595,1.09701 0,0.41144 -0.23725,0.80608 -0.6595,1.09701 -0.42224,0.29093 -0.99501,0.4544 -1.59216,0.4544 -0.59715,0 -1.16992,-0.16347 -1.59217,-0.4544 -0.42224,-0.29093 -0.65949,-0.68557 -0.65949,-1.09701 0,-0.41144 0.23725,-0.80608 0.65949,-1.09701 0.42225,-0.29093 0.99502,-0.4544 1.59217,-0.4544 z"
       style="fill:#0000ff;fill-opacity:0.7;fill-rule:nonzero;stroke:#0000ff;stroke-width:1;stroke-linecap:butt;stroke-linejoin:miter;stroke-miterlimit:10;stroke-dasharray:none;stroke-opacity:0.7"
       transform="matrix(0.35277776,0,0,-0.35277776,7.4612636,257.94053)"
       clip-path="url(#clipPath777)" />
    <path
       id="path2682"
       d="m 308.11247,426.58229 c 1.25451,0 2.45781,0.34341 3.34488,0.95461 0.88708,0.6112 1.3855,1.44028 1.3855,2.30465 0,0.86436 -0.49842,1.69344 -1.3855,2.30464 -0.88707,0.6112 -2.09037,0.95462 -3.34488,0.95462 -1.25451,0 -2.4578,-0.34342 -3.34488,-0.95462 -0.88707,-0.6112 -1.38549,-1.44028 -1.38549,-2.30464 0,-0.86437 0.49842,-1.69345 1.38549,-2.30465 0.88708,-0.6112 2.09037,-0.95461 3.34488,-0.95461 z"
       style="fill:#ff0000;fill-opacity:0.7;fill-rule:nonzero;stroke:#ff0000;stroke-width:1;stroke-linecap:butt;stroke-linejoin:miter;stroke-miterlimit:10;stroke-dasharray:none;stroke-opacity:0.7"
       transform="matrix(0.35277776,0,0,-0.35277776,7.4612636,257.94053)"
       clip-path="url(#clipPath2683)" />
    <path
       id="path2684"
       d="m 308.27804,433.58681 c 1.25451,0 2.4578,0.34342 3.34488,0.95462 0.88707,0.6112 1.38549,1.44027 1.38549,2.30464 0,0.86437 -0.49842,1.69345 -1.38549,2.30464 -0.88708,0.6112 -2.09037,0.95462 -3.34488,0.95462 -1.25451,0 -2.45781,-0.34342 -3.34489,-0.95462 -0.88707,-0.61119 -1.38549,-1.44027 -1.38549,-2.30464 0,-0.86437 0.49842,-1.69344 1.38549,-2.30464 0.88708,-0.6112 2.09038,-0.95462 3.34489,-0.95462 z"
       style="fill:#ff0000;fill-opacity:0.7;fill-rule:nonzero;stroke:#ff0000;stroke-width:1;stroke-linecap:butt;stroke-linejoin:miter;stroke-miterlimit:10;stroke-dasharray:none;stroke-opacity:0.7"
       transform="matrix(0.35277776,0,0,-0.35277776,7.4612636,257.94053)"
       clip-path="url(#clipPath2685)" />
    <path
       id="path2718"
       d="m 318.0983,426.49501 c 1.25451,0 2.45781,0.34341 3.34488,0.95461 0.88707,0.6112 1.3855,1.44028 1.3855,2.30465 0,0.86436 -0.49843,1.69344 -1.3855,2.30464 -0.88707,0.6112 -2.09037,0.95462 -3.34488,0.95462 -1.25451,0 -2.45781,-0.34342 -3.34488,-0.95462 -0.88708,-0.6112 -1.3855,-1.44028 -1.3855,-2.30464 0,-0.86437 0.49842,-1.69345 1.3855,-2.30465 0.88707,-0.6112 2.09037,-0.95461 3.34488,-0.95461 z"
       style="fill:#ff0000;fill-opacity:0.7;fill-rule:nonzero;stroke:#ff0000;stroke-width:1;stroke-linecap:butt;stroke-linejoin:miter;stroke-miterlimit:10;stroke-dasharray:none;stroke-opacity:0.7"
       transform="matrix(0.35277776,0,0,-0.35277776,7.4612636,257.94053)"
       clip-path="url(#clipPath2719)" />
    <path
       id="path2720"
       d="m 317.74352,433.64493 c 1.25451,0 2.45781,0.34342 3.34488,0.95462 0.88708,0.6112 1.3855,1.44028 1.3855,2.30464 0,0.86437 -0.49842,1.69345 -1.3855,2.30465 -0.88707,0.6112 -2.09037,0.95461 -3.34488,0.95461 -1.25451,0 -2.45781,-0.34341 -3.34488,-0.95461 -0.88707,-0.6112 -1.3855,-1.44028 -1.3855,-2.30465 0,-0.86436 0.49843,-1.69344 1.3855,-2.30464 0.88707,-0.6112 2.09037,-0.95462 3.34488,-0.95462 z"
       style="fill:#ff0000;fill-opacity:0.7;fill-rule:nonzero;stroke:#ff0000;stroke-width:1;stroke-linecap:butt;stroke-linejoin:miter;stroke-miterlimit:10;stroke-dasharray:none;stroke-opacity:0.7"
       transform="matrix(0.35277776,0,0,-0.35277776,7.4612636,257.94053)"
       clip-path="url(#clipPath2721)" />
    <path
       id="path4402"
       d="m 308.11247,429.84155 0.16557,7.00452"
       style="fill:none;stroke:#2f4f4f;stroke-width:1.5;stroke-linecap:square;stroke-linejoin:round;stroke-miterlimit:10;stroke-dasharray:none;stroke-opacity:0.7"
       transform="matrix(0.35277776,0,0,-0.35277776,7.4612636,257.94053)"
       clip-path="url(#clipPath4403)" />
    <path
       id="path4404"
       d="m 308.11247,429.84155 9.98583,-0.0873"
       style="fill:none;stroke:#2f4f4f;stroke-width:1.5;stroke-linecap:square;stroke-linejoin:round;stroke-miterlimit:10;stroke-dasharray:none;stroke-opacity:0.7"
       transform="matrix(0.35277776,0,0,-0.35277776,7.4612636,257.94053)"
       clip-path="url(#clipPath4405)" />
    <path
       id="path4478"
       d="m 308.30169,423.24584 -0.18922,6.59571"
       style="fill:none;stroke:#2f4f4f;stroke-width:1.5;stroke-linecap:square;stroke-linejoin:round;stroke-miterlimit:10;stroke-dasharray:none;stroke-opacity:0.7"
       transform="matrix(0.35277776,0,0,-0.35277776,7.4612636,257.94053)"
       clip-path="url(#clipPath4479)" />
    <path
       id="path4484"
       d="m 308.27804,436.84607 -10.22235,-0.0784"
       style="fill:none;stroke:#2f4f4f;stroke-width:1.5;stroke-linecap:square;stroke-linejoin:round;stroke-miterlimit:10;stroke-dasharray:none;stroke-opacity:0.7"
       transform="matrix(0.26378429,0,0,-0.31505128,34.912597,241.46217)"
       clip-path="url(#clipPath4485)" />
    <path
       id="path4486"
       d="m 308.27804,436.84607 -0.16557,-7.00452"
       style="fill:none;stroke:#2f4f4f;stroke-width:1.5;stroke-linecap:square;stroke-linejoin:round;stroke-miterlimit:10;stroke-dasharray:none;stroke-opacity:0.7"
       transform="matrix(0.35277776,0,0,-0.35277776,7.4612636,257.94053)"
       clip-path="url(#clipPath4487)" />
    <path
       id="path4488"
       d="m 308.27804,436.84607 -0.77106,6.75208"
       style="fill:none;stroke:#2f4f4f;stroke-width:1.5;stroke-linecap:square;stroke-linejoin:round;stroke-miterlimit:10;stroke-dasharray:none;stroke-opacity:0.7"
       transform="matrix(0.35277776,0,0,-0.35277776,7.4612636,257.94053)"
       clip-path="url(#clipPath4489)" />
    <path
       id="path4490"
       d="m 308.27804,436.84607 9.46548,0.0581"
       style="fill:none;stroke:#2f4f4f;stroke-width:1.5;stroke-linecap:square;stroke-linejoin:round;stroke-miterlimit:10;stroke-dasharray:none;stroke-opacity:0.7"
       transform="matrix(0.35277776,0,0,-0.35277776,7.4612636,257.94053)"
       clip-path="url(#clipPath4491)" />
    <path
       id="path4592"
       d="m 318.0983,429.75427 -9.98583,0.0873"
       style="fill:none;stroke:#2f4f4f;stroke-width:1.5;stroke-linecap:square;stroke-linejoin:round;stroke-miterlimit:10;stroke-dasharray:none;stroke-opacity:0.7"
       transform="matrix(0.35277776,0,0,-0.35277776,7.4612636,257.94053)"
       clip-path="url(#clipPath4593)" />
    <path
       id="path4594"
       d="m 318.0983,429.75427 -0.0284,-6.66974"
       style="fill:none;stroke:#2f4f4f;stroke-width:1.5;stroke-linecap:square;stroke-linejoin:round;stroke-miterlimit:10;stroke-dasharray:none;stroke-opacity:0.7"
       transform="matrix(0.35277776,0,0,-0.35277776,7.4612636,257.94053)"
       clip-path="url(#clipPath4595)" />
    <path
       id="path4596"
       d="m 318.0983,429.75427 -0.35478,7.14992"
       style="fill:none;stroke:#2f4f4f;stroke-width:1.5;stroke-linecap:square;stroke-linejoin:round;stroke-miterlimit:10;stroke-dasharray:none;stroke-opacity:0.7"
       transform="matrix(0.35277776,0,0,-0.35277776,7.4612636,257.94053)"
       clip-path="url(#clipPath4597)" />
    <path
       id="path4600"
       d="m 317.74352,436.90419 -9.46548,-0.0581"
       style="fill:none;stroke:#2f4f4f;stroke-width:1.5;stroke-linecap:square;stroke-linejoin:round;stroke-miterlimit:10;stroke-dasharray:none;stroke-opacity:0.7"
       transform="matrix(0.35277776,0,0,-0.35277776,7.4612636,257.94053)"
       clip-path="url(#clipPath4601)" />
    <path
       id="path4602"
       d="m 317.74352,436.90419 0.35478,-7.14992"
       style="fill:none;stroke:#2f4f4f;stroke-width:1.5;stroke-linecap:square;stroke-linejoin:round;stroke-miterlimit:10;stroke-dasharray:none;stroke-opacity:0.7"
       transform="matrix(0.35277776,0,0,-0.35277776,7.4612636,257.94053)"
       clip-path="url(#clipPath4603)" />
    <path
       id="path4610"
       d="m 317.76717,443.76748 -0.0237,-6.86329"
       style="fill:none;stroke:#2f4f4f;stroke-width:1.5;stroke-linecap:square;stroke-linejoin:round;stroke-miterlimit:10;stroke-dasharray:none;stroke-opacity:0.7"
       transform="matrix(0.35277776,0,0,-0.35277776,7.4612636,257.94053)"
       clip-path="url(#clipPath4611)" />
    <path
       style="opacity:1;fill:#3c47c2;fill-opacity:1;stroke:#3f4e4e;stroke-width:0.2;stroke-dasharray:none;stroke-opacity:1;marker-start:url(#ArrowWide);marker-end:url(#ArrowWide)"
       d="m 116.05321,109.34636 h 3.48624"
       id="path1" />
    <text
       xml:space="preserve"
       style="font-size:2.82222px;opacity:1;fill:#2f4e4e;fill-opacity:1;stroke:#3f4e4e;stroke-width:0;stroke-dasharray:none;stroke-opacity:1"
       x="116.47654"
       y="111.0547"
       id="text3"><tspan
         sodipodi:role="line"
         id="tspan3"
         style="font-style:italic;font-variant:normal;font-weight:bold;font-stretch:normal;font-size:2.82222px;font-family:'CMU Serif';-inkscape-font-specification:'CMU Serif Bold Italic';fill:#2f4e4e;fill-opacity:1;stroke:#3f4e4e;stroke-width:0;stroke-dasharray:none;stroke-opacity:1"
         x="116.47654"
         y="111.0547">a<tspan
   style="font-size:65%;baseline-shift:sub"
   id="tspan5">x</tspan></tspan></text>
    <text
       xml:space="preserve"
       style="font-size:2.82222px;fill:#2f4e4e;fill-opacity:1;stroke:#2f4e4e;stroke-width:0;stroke-dasharray:none;stroke-opacity:1"
       x="110.43186"
       y="107.73044"
       id="text3-6"><tspan
         sodipodi:role="line"
         id="tspan3-1"
         style="font-style:italic;font-variant:normal;font-weight:bold;font-stretch:normal;font-size:2.82222px;font-family:'CMU Serif';-inkscape-font-specification:'CMU Serif Bold Italic';fill:#2f4e4e;fill-opacity:1;stroke:#2f4e4e;stroke-width:0;stroke-dasharray:none;stroke-opacity:1"
         x="110.43186"
         y="107.73044">a<tspan
   style="font-size:65%;baseline-shift:sub"
   id="tspan4">y</tspan></tspan></text>
    <path
       style="fill:#3c47c2;fill-opacity:1;stroke:#2f4e4e;stroke-width:0.2;stroke-dasharray:none;stroke-opacity:1;marker-start:url(#ArrowWide-2);marker-end:url(#ArrowWide-2)"
       d="m 112.61547,103.80628 0.0229,2.69819"
       id="path3" />
    <path
       id="path4484-9"
       d="m 308.27804,436.84607 -10.22235,-0.0784"
       style="fill:none;stroke:#2f4f4f;stroke-width:1.5;stroke-linecap:square;stroke-linejoin:round;stroke-miterlimit:10;stroke-dasharray:none;stroke-opacity:0.7"
       transform="matrix(0.26378429,0,0,-0.31505128,34.895514,243.90699)"
       clip-path="url(#clipPath4485-6)" />
    <path
       id="path4484-4"
       d="m 308.27804,436.84607 -10.22235,-0.0784"
       style="fill:none;stroke:#2f4f4f;stroke-width:1.5;stroke-linecap:square;stroke-linejoin:round;stroke-miterlimit:10;stroke-dasharray:none;stroke-opacity:0.7"
       transform="matrix(0.26346968,0.01287943,0.01538257,-0.31467552,34.43143,239.92597)"
       clip-path="url(#clipPath4485-4)" />
    <path
       id="path4484-8"
       d="m 308.27804,436.84607 -10.22235,-0.0784"
       style="fill:none;stroke:#2f4f4f;stroke-width:1.5;stroke-linecap:square;stroke-linejoin:round;stroke-miterlimit:10;stroke-dasharray:none;stroke-opacity:0.7"
       transform="matrix(0.2636739,-0.00763052,-0.00911352,-0.31491944,44.912588,243.66141)"
       clip-path="url(#clipPath4485-43)" />
  </g>
</svg>
